<svg width="24" height="24" viewBox="0 0 24 24" fill="none" xmlns="http://www.w3.org/2000/svg">
<path d="M21.3045 5.30964L18.9683 2.09772C18.7657 1.81916 18.3799 1.74912 18.0922 1.93878L16.5578 2.95061L15.7266 1.80081C15.3641 1.29936 14.7783 1 14.1596 1H4.50586C3.43968 1 2.57227 1.86741 2.57227 2.93359V21.0664C2.57227 22.1326 3.43968 23 4.50586 23H18.6855C19.7517 23 20.6191 22.1326 20.6191 21.0664V9.19448C20.6191 8.78516 20.4924 8.39342 20.2526 8.0617L19.6291 7.19923L21.1324 6.23059C21.4437 6.02996 21.522 5.60874 21.3045 5.30964ZM19.3301 21.0664C19.3301 21.4218 19.0409 21.7109 18.6855 21.7109H4.50586C4.15046 21.7109 3.86133 21.4218 3.86133 21.0664V2.93359C3.86133 2.5782 4.15046 2.28906 4.50586 2.28906H14.1596C14.3659 2.28906 14.5611 2.38884 14.6819 2.55598L19.2079 8.81687C19.2878 8.92748 19.3301 9.05806 19.3301 9.19448V21.0664ZM18.8728 6.15303L17.3137 3.99625L18.288 3.35383L19.8609 5.51636L18.8728 6.15303Z" fill="#110F11"/>
<path d="M12.1722 11.7117C11.9353 11.2377 11.2564 11.2371 11.0192 11.7117C10.401 12.9483 8.37305 14.9768 8.37305 17.1561C8.37305 18.9331 9.81873 20.3788 11.5957 20.3788C13.3727 20.3788 14.8184 18.9331 14.8184 17.1561C14.8184 14.9768 12.7904 12.9481 12.1722 11.7117ZM11.5957 19.0897C10.5295 19.0897 9.66211 18.2223 9.66211 17.1561C9.66211 15.8398 10.7937 14.4131 11.5957 13.2334C12.398 14.4136 13.5293 15.8398 13.5293 17.1561C13.5293 18.2223 12.6619 19.0897 11.5957 19.0897Z" fill="#110F11"/>
<path d="M13.3332 6.46674L11.4739 3.88862C11.3528 3.72061 11.1583 3.62109 10.9512 3.62109H5.79492C5.43897 3.62109 5.15039 3.90967 5.15039 4.26562V6.84375C5.15039 7.1997 5.43897 7.48828 5.79492 7.48828H12.8105C13.3351 7.48828 13.6402 6.89239 13.3332 6.46674ZM6.43945 6.19922V4.91016H10.6213L11.551 6.19922H6.43945Z" fill="#110F11"/>
</svg>
