<svg width="14" height="11" viewBox="0 0 14 11" fill="none" xmlns="http://www.w3.org/2000/svg">
<path fill-rule="evenodd" clip-rule="evenodd" d="M0.200195 1.70201C0.200195 1.24301 0.600195 0.872009 1.0002 0.872009H12.7002C13.1002 0.872009 13.5002 1.24301 13.5002 1.70201C13.5002 2.16001 13.1002 2.53201 12.7002 2.53201H1.0002C0.600195 2.53201 0.200195 2.16001 0.200195 1.70201ZM0.200195 5.85201C0.200195 5.39401 0.600195 5.02201 1.0002 5.02201H12.7002C13.1002 5.02201 13.5002 5.39401 13.5002 5.85201C13.5002 6.31001 13.1002 6.68201 12.7002 6.68201H1.0002C0.600195 6.68201 0.200195 6.31001 0.200195 5.85201ZM1.0002 9.17201C0.600195 9.17201 0.200195 9.54401 0.200195 10.002C0.200195 10.461 0.600195 10.832 1.0002 10.832H12.7002C13.1002 10.832 13.5002 10.461 13.5002 10.002C13.5002 9.54401 13.1002 9.17201 12.7002 9.17201H1.0002Z" fill="#110F11"/>
</svg>
