<svg width="22" height="22" viewBox="0 0 22 22" fill="none" xmlns="http://www.w3.org/2000/svg">
<path d="M16.4966 0.94434C15.7517 1.68924 15.4471 2.70068 15.5849 3.67956L13.9529 5.31137L12.7516 4.51057C12.4555 4.31301 12.0552 4.39308 11.8577 4.68933C11.6603 4.98558 11.7403 5.38589 12.0364 5.58328L13.0232 6.24123L12.1296 7.13485L10.9283 6.33388C10.6322 6.1365 10.2319 6.21639 10.0344 6.51264C9.83697 6.80889 9.91703 7.2092 10.2133 7.40676L11.1999 8.06455L10.3063 8.95816L9.10499 8.1572C8.80891 7.95981 8.4086 8.03988 8.21104 8.33612C8.01366 8.63237 8.09372 9.03252 8.38997 9.23007L9.37674 9.88786L8.23605 11.0285L7.32431 10.1168C7.07271 9.86504 6.66451 9.86504 6.41274 10.1168L5.04513 11.4844C4.28931 12.2402 4.28931 13.4635 5.04513 14.2193L3.67634 15.5881C2.70686 15.4511 1.68669 15.7544 0.942625 16.4985C-0.314208 17.7553 -0.314208 19.8002 0.942625 21.057C2.19929 22.3137 4.24416 22.3137 5.501 21.057C6.24506 20.313 6.54836 19.2926 6.41139 18.3231L7.78018 16.9544C8.53599 17.7102 9.75926 17.7103 10.5152 16.9544L11.8827 15.5869C12.1345 15.3351 12.1345 14.9269 11.8827 14.6752L10.9711 13.7634L12.6586 12.0759L13.8599 12.8767C14.155 13.0734 14.5556 12.9955 14.7539 12.6979C14.9514 12.4017 14.8714 12.0014 14.5751 11.804L13.5883 11.1462L14.482 10.2526L15.6832 11.0534C15.9783 11.2501 16.3788 11.1722 16.5772 10.8746C16.7747 10.5784 16.6947 10.1781 16.3984 9.98068L15.4117 9.32289L16.3053 8.42928L17.5065 9.23007C17.8018 9.42679 18.2024 9.34857 18.4007 9.05132C18.598 8.75507 18.518 8.35475 18.2217 8.1572L17.235 7.49941L18.3199 6.41462C19.3007 6.55276 20.3118 6.24627 21.055 5.50288C22.3147 4.24319 22.315 2.20419 21.055 0.94434C19.7955 -0.315347 17.7565 -0.315515 16.4966 0.94434ZM4.58925 20.1453C3.83512 20.8993 2.60816 20.8993 1.8542 20.1453C1.10006 19.3912 1.10006 18.1642 1.8542 17.4102C2.60816 16.6561 3.83512 16.6561 4.58925 17.4102C5.34322 18.1642 5.34322 19.3912 4.58925 20.1453ZM5.91088 17.0002C5.79355 16.8228 5.65693 16.6546 5.50083 16.4985C5.34473 16.3424 5.17655 16.2058 4.99914 16.0884L5.9567 15.1309L6.86844 16.0426L5.91088 17.0002ZM9.60333 16.0426C9.35206 16.2941 8.94302 16.2941 8.69176 16.0426L5.9567 13.3076C5.70543 13.0563 5.70543 12.6473 5.9567 12.396L6.86827 11.4842L10.5151 15.131L9.60333 16.0426ZM10.0592 12.8519L9.14763 11.9401L10.4706 10.6172L11.5646 11.3464L10.0592 12.8519ZM12.4943 10.4167L11.4003 9.68745L12.2939 8.79384L13.3879 9.52313L12.4943 10.4167ZM14.3176 8.59343L13.2236 7.86397L14.1172 6.97036L15.2112 7.69982L14.3176 8.59343ZM16.1409 6.76995L15.0469 6.04066L16.0862 5.00135C16.2047 5.17977 16.3417 5.34779 16.4966 5.50271C16.6515 5.65763 16.8195 5.79459 16.998 5.91309L16.1409 6.76995ZM20.1434 4.59097C19.3876 5.34678 18.1642 5.34695 17.4084 4.59097C16.6525 3.83532 16.6524 2.61189 17.4084 1.85608C18.164 1.10027 19.3874 1.1001 20.1434 1.85608C20.8991 2.61172 20.8994 3.83516 20.1434 4.59097Z" fill="#110F11"/>
</svg>
