<svg width="24" height="24" viewBox="0 0 24 24" fill="none" xmlns="http://www.w3.org/2000/svg">
<path d="M13.6157 2.61572H4.94407C4.55043 2.61572 4.2313 2.93485 4.2313 3.32849C4.2313 3.72213 4.55043 4.04126 4.94407 4.04126H8.6491C7.86741 4.5308 7.16259 5.13202 6.55737 5.82275H1.71277C1.31913 5.82279 1 6.14196 1 6.5356C1 6.92924 1.31913 7.24837 1.71277 7.24837H5.52625C4.70391 8.64296 4.23126 10.2673 4.23126 12.0001C4.23126 14.0163 4.87059 15.8861 5.95693 17.4175H3.93456C3.54092 17.4175 3.22179 17.7366 3.22179 18.1302C3.22179 18.5239 3.54092 18.843 3.93456 18.843H7.201C7.64543 19.2599 8.13033 19.634 8.6491 19.9588H1.78629C1.39265 19.9588 1.07352 20.278 1.07352 20.6716C1.07352 21.0653 1.39265 21.3844 1.78629 21.3844H13.6157C18.7903 21.3844 23 17.1746 23 12C23 6.82551 18.7902 2.61572 13.6157 2.61572ZM13.6157 19.9589C9.22716 19.9589 5.65688 16.3887 5.65688 12.0001C5.65688 7.61158 9.22716 4.0413 13.6157 4.0413C18.0041 4.0413 21.5744 7.61158 21.5744 12.0001C21.5744 16.3886 18.0042 19.9589 13.6157 19.9589Z" fill="#110F11"/>
<path d="M13.6159 6.17798C10.4057 6.17798 7.79395 8.78971 7.79395 12C7.79395 13.9143 8.72289 15.6158 10.1536 16.6775C10.1667 16.6886 10.1797 16.6998 10.1938 16.71C10.2097 16.7215 10.226 16.7323 10.2425 16.7424C11.1948 17.4218 12.3595 17.8219 13.6159 17.8219C14.8723 17.8219 16.037 17.4218 16.9894 16.7424C17.0059 16.7323 17.0221 16.7215 17.038 16.71C17.0521 16.6997 17.0652 16.6885 17.0783 16.6775C18.5089 15.6158 19.4379 13.9144 19.4379 12C19.4379 8.78975 16.8262 6.17798 13.6159 6.17798ZM14.3287 7.66165C15.7197 7.88943 16.8931 8.77201 17.5208 9.98171L15.6751 10.5815C15.3545 10.1174 14.8814 9.76686 14.3287 9.60225V7.66165H14.3287ZM14.6921 11.9999C14.6921 12.5933 14.2093 13.0761 13.6159 13.0761C13.0225 13.0761 12.5398 12.5934 12.5398 11.9999C12.5398 11.4065 13.0225 10.9238 13.6159 10.9238C14.2093 10.9238 14.6921 11.4065 14.6921 11.9999ZM12.9031 7.66165V9.60225C12.3504 9.76686 11.8774 10.1174 11.5567 10.5815L9.711 9.98171C10.3388 8.77201 11.5122 7.88938 12.9031 7.66165ZM10.4907 15.0888C9.70529 14.2942 9.21952 13.2028 9.21952 11.9999C9.21952 11.7747 9.23662 11.5533 9.26945 11.3371L11.1158 11.937C11.1153 11.958 11.1141 11.9788 11.1141 11.9999C11.1141 12.5712 11.3071 13.0981 11.6306 13.5198L10.4907 15.0888ZM13.6159 16.3963C12.9069 16.3963 12.2367 16.2274 11.643 15.928L12.7832 14.3587C13.0439 14.451 13.324 14.5017 13.6159 14.5017C13.9078 14.5017 14.188 14.451 14.4486 14.3587L15.5888 15.928C14.9952 16.2274 14.325 16.3963 13.6159 16.3963ZM16.7411 15.0888L15.6012 13.5198C15.9247 13.0982 16.1177 12.5713 16.1177 12C16.1177 11.9789 16.1166 11.9581 16.116 11.9371L17.9623 11.3372C17.9952 11.5534 18.0123 11.7747 18.0123 12C18.0123 13.2028 17.5266 14.2942 16.7411 15.0888Z" fill="#110F11"/>
</svg>
