<svg width="12" height="12" viewBox="0 0 12 12" fill="none" xmlns="http://www.w3.org/2000/svg">
<path d="M5.475 5.46417C5.475 5.17422 5.71005 4.93917 6 4.93917C6.28995 4.93917 6.525 5.17422 6.525 5.46417V8.61417C6.525 8.90412 6.28995 9.13917 6 9.13917C5.71005 9.13917 5.475 8.90412 5.475 8.61417V5.46417Z" fill="#110F11"/>
<path d="M6 2.87685C5.71005 2.87685 5.475 3.1119 5.475 3.40185C5.475 3.6918 5.71005 3.92685 6 3.92685C6.28995 3.92685 6.525 3.6918 6.525 3.40185C6.525 3.1119 6.28995 2.87685 6 2.87685Z" fill="#110F11"/>
<path fill-rule="evenodd" clip-rule="evenodd" d="M6 0.75C3.10051 0.75 0.75 3.10051 0.75 6C0.75 8.89949 3.10051 11.25 6 11.25C8.89949 11.25 11.25 8.89949 11.25 6C11.25 3.10051 8.89949 0.75 6 0.75ZM1.8 6C1.8 8.3196 3.6804 10.2 6 10.2C8.3196 10.2 10.2 8.3196 10.2 6C10.2 3.6804 8.3196 1.8 6 1.8C3.6804 1.8 1.8 3.6804 1.8 6Z" fill="#110F11"/>
</svg>
